normalP062_grf.mot
version=1
nRows=15
nColumns=19
inDegrees=yes
endheader
time	1_ground_force_vx	1_ground_force_vy	1_ground_force_vz	1_ground_force_px	1_ground_force_py	1_ground_force_pz	1_ground_torque_x	1_ground_torque_y	1_ground_torque_z	2_ground_force_vx	2_ground_force_vy	2_ground_force_vz	2_ground_force_px	2_ground_force_py	2_ground_force_pz	2_ground_torque_x	2_ground_torque_y	2_ground_torque_z
            1.885000	          130.446449	          486.649991	           15.274487	            0.478973	            0.001966	           -0.177976	            0.165896	            0.618899	            0.019425	          -44.876825	          302.613208	          -26.660525	            0.948249	            0.000862	           -0.211418	           -0.008654	            0.058356	           -0.005141
            1.886000	          129.711920	          478.287573	           15.501114	            0.479301	            0.001964	           -0.177973	            0.151373	            0.558157	            0.018090	          -47.363414	          299.175729	          -25.376213	            0.949238	            0.000860	           -0.211492	           -0.013576	            0.085754	           -0.007274
            1.887000	          128.949363	          470.644069	           15.706926	            0.479496	            0.001964	           -0.178105	            0.140802	            0.513905	            0.017151	          -49.742324	          295.739797	          -24.229939	            0.949826	            0.000861	           -0.211791	           -0.017189	            0.102199	           -0.008373
            1.888000	          128.257571	          463.558942	           16.059869	            0.479255	            0.001965	           -0.178209	            0.135170	            0.488542	            0.016925	          -51.730598	          291.904807	          -23.291983	            0.950278	            0.000861	           -0.212108	           -0.022579	            0.127407	           -0.010166
            1.889000	          127.380535	          455.916385	           16.365204	            0.479183	            0.001966	           -0.178352	            0.123352	            0.441497	            0.015848	          -53.560160	          287.506725	          -21.834114	            0.951472	            0.000860	           -0.212398	           -0.022395	            0.120216	           -0.009130
            1.890000	          126.411311	          448.191992	           16.700993	            0.479277	            0.001966	           -0.178642	            0.126744	            0.449373	            0.016745	          -55.094723	          284.308521	          -20.884280	            0.952294	            0.000858	           -0.212352	           -0.030225	            0.155973	           -0.011457
            1.891000	          125.568019	          439.274873	           16.987249	            0.479351	            0.001966	           -0.178467	            0.102789	            0.359586	            0.013906	          -56.158996	          282.548946	          -19.711266	            0.952442	            0.000861	           -0.213073	           -0.032003	            0.161012	           -0.011233
            1.892000	          124.278163	          431.636061	           17.185327	            0.478994	            0.001967	           -0.178431	            0.073177	            0.254155	            0.010119	          -56.831925	          281.263986	          -18.212326	            0.953252	            0.000860	           -0.213164	           -0.038289	            0.189496	           -0.012270
            1.893000	          123.098781	          422.957098	           17.541148	            0.479199	            0.001967	           -0.178798	            0.083705	            0.287603	            0.011928	          -57.259701	          279.503010	          -17.122936	            0.953550	            0.000862	           -0.213760	           -0.035201	            0.171828	           -0.010527
            1.894000	          122.113208	          414.916792	           18.028973	            0.478842	            0.001969	           -0.178928	            0.076250	            0.259081	            0.011258	          -57.088975	          278.218188	          -15.752916	            0.953772	            0.000863	           -0.214085	           -0.037675	            0.183606	           -0.010396
            1.895000	          120.590551	          406.399804	           18.323919	            0.478681	            0.001971	           -0.179302	            0.071755	            0.241819	            0.010903	          -56.779419	          277.491867	          -14.241509	            0.953829	            0.000865	           -0.214442	           -0.045280	            0.221292	           -0.011357
            1.896000	          119.150253	          397.402658	           18.717234	            0.479351	            0.001968	           -0.179168	            0.074978	            0.250075	            0.011778	          -56.176354	          277.485764	          -13.002652	            0.953976	            0.000868	           -0.215046	           -0.044873	            0.221652	           -0.010386
            1.897000	          117.313822	          388.727570	           18.912233	            0.479269	            0.001970	           -0.179713	            0.068624	            0.227391	            0.011063	          -55.268067	          276.918769	          -11.619809	            0.953699	            0.000869	           -0.215289	           -0.047939	            0.240198	           -0.010079
            1.898000	          115.642734	          379.413789	           19.036598	            0.479702	            0.001968	           -0.179713	            0.066926	            0.219579	            0.011017	          -54.533723	          277.310557	          -10.401508	            0.953856	            0.000869	           -0.215305	           -0.055002	            0.279691	           -0.010491
            1.899000	          114.279340	          370.581226	           19.177632	            0.479145	            0.001970	           -0.179664	            0.048958	            0.158760	            0.008216	          -53.945877	          277.223416	           -9.278096	            0.954395	            0.000868	           -0.215375	           -0.060605	            0.311442	           -0.010423
